<mxfile host="app.diagrams.net" agent="Mozilla/5.0 (Windows NT 10.0; Win64; x64) AppleWebKit/537.36 (KHTML, like Gecko) Chrome/135.0.0.0 Safari/537.36" version="26.2.13">
  <diagram id="C5RBs43oDa-KdzZeNtuy" name="Page-1">
    <mxGraphModel dx="1800" dy="753" grid="0" gridSize="10" guides="1" tooltips="1" connect="1" arrows="1" fold="1" page="1" pageScale="1" pageWidth="827" pageHeight="1169" math="0" shadow="0">
      <root>
        <mxCell id="WIyWlLk6GJQsqaUBKTNV-0" />
        <mxCell id="WIyWlLk6GJQsqaUBKTNV-1" parent="WIyWlLk6GJQsqaUBKTNV-0" />
        <mxCell id="WIyWlLk6GJQsqaUBKTNV-4" value="Si" style="rounded=0;html=1;jettySize=auto;orthogonalLoop=1;fontSize=14;endArrow=block;endFill=0;endSize=8;strokeWidth=1;shadow=0;labelBackgroundColor=none;edgeStyle=orthogonalEdgeStyle;exitX=0.5;exitY=1;exitDx=0;exitDy=0;entryX=0.5;entryY=0;entryDx=0;entryDy=0;" parent="WIyWlLk6GJQsqaUBKTNV-1" source="wOk-38grqLeMf-4FPamz-4" target="wOk-38grqLeMf-4FPamz-8" edge="1">
          <mxGeometry y="20" relative="1" as="geometry">
            <mxPoint as="offset" />
            <mxPoint x="199" y="565" as="sourcePoint" />
            <mxPoint x="223" y="601" as="targetPoint" />
          </mxGeometry>
        </mxCell>
        <mxCell id="WIyWlLk6GJQsqaUBKTNV-5" value="No" style="edgeStyle=orthogonalEdgeStyle;rounded=0;html=1;jettySize=auto;orthogonalLoop=1;fontSize=14;endArrow=block;endFill=0;endSize=8;strokeWidth=1;shadow=0;labelBackgroundColor=none;exitX=1;exitY=0.5;exitDx=0;exitDy=0;entryX=1;entryY=0.5;entryDx=0;entryDy=0;" parent="WIyWlLk6GJQsqaUBKTNV-1" source="wOk-38grqLeMf-4FPamz-5" target="wOk-38grqLeMf-4FPamz-2" edge="1">
          <mxGeometry x="0.4184" y="-19" relative="1" as="geometry">
            <mxPoint as="offset" />
            <mxPoint x="593" y="218" as="sourcePoint" />
            <mxPoint x="643" y="218" as="targetPoint" />
          </mxGeometry>
        </mxCell>
        <mxCell id="WIyWlLk6GJQsqaUBKTNV-8" value="No" style="rounded=0;html=1;jettySize=auto;orthogonalLoop=1;fontSize=14;endArrow=block;endFill=0;endSize=8;strokeWidth=1;shadow=0;labelBackgroundColor=none;edgeStyle=orthogonalEdgeStyle;exitX=0;exitY=0.5;exitDx=0;exitDy=0;entryX=0;entryY=0.5;entryDx=0;entryDy=0;" parent="WIyWlLk6GJQsqaUBKTNV-1" source="wOk-38grqLeMf-4FPamz-4" target="wOk-38grqLeMf-4FPamz-2" edge="1">
          <mxGeometry x="0.3333" y="20" relative="1" as="geometry">
            <mxPoint as="offset" />
            <mxPoint x="88" y="320" as="sourcePoint" />
            <mxPoint x="88" y="380" as="targetPoint" />
          </mxGeometry>
        </mxCell>
        <mxCell id="wOk-38grqLeMf-4FPamz-3" style="edgeStyle=orthogonalEdgeStyle;rounded=0;orthogonalLoop=1;jettySize=auto;html=1;entryX=0.5;entryY=0;entryDx=0;entryDy=0;" edge="1" parent="WIyWlLk6GJQsqaUBKTNV-1" source="wOk-38grqLeMf-4FPamz-0" target="wOk-38grqLeMf-4FPamz-2">
          <mxGeometry relative="1" as="geometry" />
        </mxCell>
        <mxCell id="wOk-38grqLeMf-4FPamz-0" value="Empieza Login" style="ellipse;whiteSpace=wrap;html=1;fontSize=14;" vertex="1" parent="WIyWlLk6GJQsqaUBKTNV-1">
          <mxGeometry x="354" y="94" width="120" height="62" as="geometry" />
        </mxCell>
        <mxCell id="wOk-38grqLeMf-4FPamz-6" style="edgeStyle=orthogonalEdgeStyle;rounded=0;orthogonalLoop=1;jettySize=auto;html=1;entryX=1;entryY=0;entryDx=0;entryDy=0;" edge="1" parent="WIyWlLk6GJQsqaUBKTNV-1" source="wOk-38grqLeMf-4FPamz-2" target="wOk-38grqLeMf-4FPamz-4">
          <mxGeometry relative="1" as="geometry" />
        </mxCell>
        <mxCell id="wOk-38grqLeMf-4FPamz-7" style="edgeStyle=orthogonalEdgeStyle;rounded=0;orthogonalLoop=1;jettySize=auto;html=1;entryX=0;entryY=0;entryDx=0;entryDy=0;" edge="1" parent="WIyWlLk6GJQsqaUBKTNV-1" source="wOk-38grqLeMf-4FPamz-2" target="wOk-38grqLeMf-4FPamz-5">
          <mxGeometry relative="1" as="geometry" />
        </mxCell>
        <mxCell id="wOk-38grqLeMf-4FPamz-2" value="Entra su&amp;nbsp; username y su password" style="rounded=0;whiteSpace=wrap;html=1;fontSize=14;" vertex="1" parent="WIyWlLk6GJQsqaUBKTNV-1">
          <mxGeometry x="333" y="216" width="162" height="60" as="geometry" />
        </mxCell>
        <mxCell id="wOk-38grqLeMf-4FPamz-4" value="Si el usuario entra sus&lt;div&gt;credenciales correctamente&lt;/div&gt;" style="rhombus;whiteSpace=wrap;html=1;fontSize=14;" vertex="1" parent="WIyWlLk6GJQsqaUBKTNV-1">
          <mxGeometry x="75" y="366" width="258" height="113" as="geometry" />
        </mxCell>
        <mxCell id="wOk-38grqLeMf-4FPamz-5" value="Si el administrador entra sus&lt;div&gt;credenciales correctamente&lt;/div&gt;" style="rhombus;whiteSpace=wrap;html=1;fontSize=14;" vertex="1" parent="WIyWlLk6GJQsqaUBKTNV-1">
          <mxGeometry x="495" y="366" width="258" height="113" as="geometry" />
        </mxCell>
        <mxCell id="wOk-38grqLeMf-4FPamz-12" style="edgeStyle=orthogonalEdgeStyle;rounded=0;orthogonalLoop=1;jettySize=auto;html=1;entryX=0;entryY=0.5;entryDx=0;entryDy=0;exitX=0.5;exitY=1;exitDx=0;exitDy=0;" edge="1" parent="WIyWlLk6GJQsqaUBKTNV-1" source="wOk-38grqLeMf-4FPamz-8" target="wOk-38grqLeMf-4FPamz-11">
          <mxGeometry relative="1" as="geometry" />
        </mxCell>
        <mxCell id="wOk-38grqLeMf-4FPamz-8" value="Panel de bienvenida de los usuarios" style="rounded=0;whiteSpace=wrap;html=1;fontSize=14;" vertex="1" parent="WIyWlLk6GJQsqaUBKTNV-1">
          <mxGeometry x="107.5" y="616" width="193" height="60" as="geometry" />
        </mxCell>
        <mxCell id="wOk-38grqLeMf-4FPamz-14" style="edgeStyle=orthogonalEdgeStyle;rounded=0;orthogonalLoop=1;jettySize=auto;html=1;entryX=1;entryY=0.5;entryDx=0;entryDy=0;exitX=0.5;exitY=1;exitDx=0;exitDy=0;" edge="1" parent="WIyWlLk6GJQsqaUBKTNV-1" source="wOk-38grqLeMf-4FPamz-9" target="wOk-38grqLeMf-4FPamz-11">
          <mxGeometry relative="1" as="geometry" />
        </mxCell>
        <mxCell id="wOk-38grqLeMf-4FPamz-9" value="Panel de bienvenida de los administradores" style="rounded=0;whiteSpace=wrap;html=1;fontSize=14;" vertex="1" parent="WIyWlLk6GJQsqaUBKTNV-1">
          <mxGeometry x="527.5" y="616" width="193" height="60" as="geometry" />
        </mxCell>
        <mxCell id="wOk-38grqLeMf-4FPamz-10" value="Si" style="rounded=0;html=1;jettySize=auto;orthogonalLoop=1;fontSize=14;endArrow=block;endFill=0;endSize=8;strokeWidth=1;shadow=0;labelBackgroundColor=none;edgeStyle=orthogonalEdgeStyle;exitX=0.5;exitY=1;exitDx=0;exitDy=0;entryX=0.5;entryY=0;entryDx=0;entryDy=0;" edge="1" parent="WIyWlLk6GJQsqaUBKTNV-1" source="wOk-38grqLeMf-4FPamz-5" target="wOk-38grqLeMf-4FPamz-9">
          <mxGeometry y="20" relative="1" as="geometry">
            <mxPoint as="offset" />
            <mxPoint x="619" y="496" as="sourcePoint" />
            <mxPoint x="619" y="633" as="targetPoint" />
          </mxGeometry>
        </mxCell>
        <mxCell id="wOk-38grqLeMf-4FPamz-11" value="Fin del Login" style="ellipse;whiteSpace=wrap;html=1;fontSize=14;" vertex="1" parent="WIyWlLk6GJQsqaUBKTNV-1">
          <mxGeometry x="337.5" y="765" width="153" height="80" as="geometry" />
        </mxCell>
      </root>
    </mxGraphModel>
  </diagram>
</mxfile>
